HIERARCHY
ROOT Hips
{
  OFFSET -35.4901 99.2528 17.4586
  CHANNELS 6 Xposition Yposition Zposition Zrotation Xrotation Yrotation
  JOINT LeftUpLeg
  {
    OFFSET 8.64259 1.95398 -2.38835
    CHANNELS 3 Zrotation Xrotation Yrotation
    JOINT LeftLeg
    {
      OFFSET 43.7702 0 0
      CHANNELS 3 Zrotation Xrotation Yrotation
      JOINT LeftFoot
      {
        OFFSET 40.6238 0 0
        CHANNELS 3 Zrotation Xrotation Yrotation
        JOINT LeftToeBase
        {
          OFFSET 12.7242 0 0
          CHANNELS 3 Zrotation Xrotation Yrotation
          End Site
          {
            OFFSET 0 0 0
          }
        }
      }
    }
  }
  JOINT RightUpLeg
  {
    OFFSET -8.2249 1.95398 -2.59336
    CHANNELS 3 Zrotation Xrotation Yrotation
    JOINT RightLeg
    {
      OFFSET 43.5653 0 0
      CHANNELS 3 Zrotation Xrotation Yrotation
      JOINT RightFoot
      {
        OFFSET 40.6238 0 0
        CHANNELS 3 Zrotation Xrotation Yrotation
        JOINT RightToeBase
        {
          OFFSET 12.7242 0 0
          CHANNELS 3 Zrotation Xrotation Yrotation
          End Site
          {
            OFFSET 0 0 0
          }
        }
      }
    }
  }
  JOINT Spine
  {
    OFFSET 0.165834 0.87714 6.61349
    CHANNELS 3 Zrotation Xrotation Yrotation
    JOINT Spine1
    {
      OFFSET 7.38963 1.71661e-005 0
      CHANNELS 3 Zrotation Xrotation Yrotation
      JOINT Spine2
      {
        OFFSET 11.9445 1.14441e-005 0
        CHANNELS 3 Zrotation Xrotation Yrotation
        JOINT Spine3
        {
          OFFSET 14.7254 4.19617e-005 0
          CHANNELS 3 Zrotation Xrotation Yrotation
          JOINT Spine4
          {
            OFFSET 10.9679 0 0
            CHANNELS 3 Zrotation Xrotation Yrotation
            JOINT RightShoulder
            {
              OFFSET 2.46616 -1.6653 3.69651
              CHANNELS 3 Zrotation Xrotation Yrotation
              JOINT RightArm
              {
                OFFSET 13.0012 0 0
                CHANNELS 3 Zrotation Xrotation Yrotation
                JOINT RightForeArm
                {
                  OFFSET 28.7848 1.52588e-005 0
                  CHANNELS 3 Zrotation Xrotation Yrotation
                  JOINT RightHand
                  {
                    OFFSET 26.5688 1.52588e-005 0
                    CHANNELS 3 Zrotation Xrotation Yrotation
                    End Site
                    {
                      OFFSET 0 0 0
                    }
                  }
                }
              }
            }
            JOINT LeftShoulder
            {
              OFFSET 2.38034 -1.29275 -3.7523
              CHANNELS 3 Zrotation Xrotation Yrotation
              JOINT LeftArm
              {
                OFFSET 16.3182 6.10351e-005 0
                CHANNELS 3 Zrotation Xrotation Yrotation
                JOINT LeftForeArm
                {
                  OFFSET 27.0901 0 0
                  CHANNELS 3 Zrotation Xrotation Yrotation
                  JOINT LeftHand
                  {
                    OFFSET 24.5451 1.52588e-005 0
                    CHANNELS 3 Zrotation Xrotation Yrotation
                    End Site
                    {
                      OFFSET 0 0 0
                    }
                  }
                }
              }
            }
            JOINT Neck
            {
              OFFSET 5.0226 -0.0266342 0
              CHANNELS 3 Zrotation Xrotation Yrotation
              JOINT Head
              {
                OFFSET 6.69364 2.86102e-005 0
                CHANNELS 3 Zrotation Xrotation Yrotation
                End Site
                {
                  OFFSET 0 0 0
                }
              }
            }
          }
        }
      }
    }
  }
}
MOTION
Frames:	10
Frame Time:	0.0416667
148.327 16.2402 121.748 -7.71341 -1.94984 -90.8068 -171.929 2.32899 96.7036 -25.0459 8.41037 -2.27823 59.8619 0.52581 -1.82743 68.1728 -10.3603 43.1779 166.35 -0.142412 81.0557 -25.2321 -19.3354 -0.132825 74.5903 -6.63885 0.657856 35.0804 -2.23 6.11507 -0.232241 6.28762 -90.0314 14.2986 -0.475504 0.00340778 2.62781 -0.474885 0.0243106 -19.908 -0.454529 -0.139654 0.10464 -0.454537 -0.139667 95.9345 3.44059 -109.813 -9.1094 71.4928 -14.1718 -29.6496 -20.6355 -105.477 -21.0348 -1.21142 -2.21658 -83.644 -8.69256 80.1095 -21.4033 -65.9487 -54.5139 33.3302 -1.39796 -105.089 -3.54948 0.0273384 -15.8062 42.6241 -0.437236 -9.72691 -18.1016 2.57511 14.3001 
148.198 15.4909 121.861 -9.74748 -4.04845 -89.3589 -171.121 0.9841 98.796 -26.0559 11.6034 -1.54695 60.7167 0.743775 -1.71226 68.6008 -10.367 43.9449 165.559 -4.87034 81.8937 -21.8642 -17.8435 0.864814 72.4885 -5.932 -0.56107 37.1385 -2.90141 8.46433 -0.480983 6.55058 -90.1763 13.7719 -1.03935 -0.215113 2.1014 -1.0478 -0.169143 -20.4365 -0.926652 -0.517536 -0.423812 -0.926635 -0.517532 96.4014 5.36454 -109.77 -4.77298 75.8367 -15.3334 -44.7823 -21.1824 -113.996 -31.7458 0.223854 -12.4985 -83.4928 -8.31193 80.3719 -21.5111 -65.8175 -54.2736 31.5961 -0.931071 -105.009 -1.11106 -0.198104 -13.8873 40.3396 2.98266 -1.40055 -11.2057 3.44795 1.07319 
148.211 15.6125 121.857 -9.41545 -3.86423 -89.5537 -171.244 1.26522 98.5496 -25.9168 11.2027 -1.62242 60.8305 0.804118 -1.67546 68.5958 -10.4673 44.4147 165.677 -4.15603 81.7746 -22.3589 -17.9881 0.777566 72.4834 -5.88789 -0.373238 35.3823 -3.02714 8.72778 -0.41461 6.49233 -90.0717 13.8897 -0.856866 -0.0290345 2.21907 -0.85733 0.00870864 -20.3182 -0.808528 -0.285228 -0.30552 -0.808531 -0.285245 95.7959 3.73477 -110.707 -11.687 75.1954 -8.88664 -41.679 -21.043 -111.399 -29.4532 0.461591 -13.3543 -83.3767 -5.2691 79.4812 -24.3124 -65.6236 -53.8731 32.7965 -1.36177 -105.776 -1.63577 -0.147101 -12.8851 39.6186 1.74534 -5.05855 -10.8188 3.75187 4.56372 
148.236 15.6153 121.894 -9.45749 -3.797 -89.7557 -171.383 1.09199 98.285 -25.8213 10.7837 -1.61521 60.8746 0.846159 -1.97025 69.1409 -10.3996 45.0726 165.519 -3.9856 81.4974 -22.6203 -18.2434 0.775597 72.6547 -5.96867 -0.520444 36.8299 -2.96148 8.64987 -0.420383 6.48819 -89.9966 13.8983 -0.83162 0.118337 2.22762 -0.825627 0.1548 -20.3096 -0.828741 -0.137094 -0.297003 -0.828742 -0.137103 95.5265 2.92893 -110.999 -12.5893 75.074 -8.29329 -41.7764 -20.7479 -111.556 -29.6063 0.408998 -13.0864 -83.5021 -4.27716 78.6697 -24.7514 -66.2795 -53.1723 33.1027 -1.32416 -106.045 -2.20907 -0.102143 -12.7425 38.2968 1.06361 -6.7481 -9.89473 3.81153 5.66336 
148.192 15.6019 121.892 -9.64873 -3.77802 -89.764 -171.324 1.01126 98.3354 -26.1592 10.9827 -1.64951 60.5016 0.648944 -1.72395 68.9028 -10.4865 45.0585 165.436 -4.38387 81.4589 -22.1958 -18.2789 0.77198 72.5609 -5.96273 -0.580438 36.9022 -2.90404 8.46234 -0.437795 6.52697 -89.9951 13.8208 -0.865573 0.124905 2.15013 -0.859232 0.162875 -20.3873 -0.863088 -0.141033 -0.374657 -0.863087 -0.141023 95.6429 3.9205 -111.555 -13.9681 76.0647 -5.75505 -43.0301 -20.8836 -112.904 -29.7869 0.172893 -12.1938 -83.556 -4.4952 78.5989 -23.8851 -66.7717 -52.7916 33.0417 -1.2127 -105.924 -2.15974 -0.106361 -12.8848 39.2738 1.24161 -6.66331 -10.8888 3.9449 5.73746 
148.223 15.623 121.889 -9.55603 -3.70155 -89.7328 -171.344 1.18551 98.3463 -26.2105 10.9875 -1.64603 60.7227 0.742347 -1.72287 70.3964 -10.2261 46.6124 165.484 -4.27436 81.5201 -22.2 -18.3629 0.762217 72.559 -5.98449 -0.709209 37.2904 -2.7882 8.08818 -0.450338 6.47199 -89.9161 13.9313 -0.851646 0.282725 2.26055 -0.83838 0.319928 -20.2768 -0.897241 0.0136912 -0.264183 -0.897235 0.0136889 94.9459 1.41371 -111.805 -14.9513 74.8763 -6.68738 -41.8101 -20.7045 -111.343 -29.6858 0.455955 -13.2744 -83.4238 -3.48935 78.5412 -23.788 -66.4279 -51.7178 33.0242 -1.38152 -106.292 -1.86767 -0.12816 -12.8842 36.5646 0.449823 -8.72907 -8.46812 4.00698 7.40955 
148.253 15.629 121.889 -9.61399 -3.76314 -89.7278 -171.299 1.04802 98.3744 -25.9955 11.1445 -1.62627 60.8307 0.801633 -1.65534 71.7732 -9.91053 47.8206 165.49 -4.28746 81.5206 -22.3309 -18.3062 0.769057 72.7592 -6.04642 -0.578675 35.179 -2.98752 8.58048 -0.483149 6.47903 -89.9057 13.9175 -0.911621 0.311472 2.24682 -0.897038 0.351267 -20.2909 -0.963075 0.0230699 -0.27826 -0.963099 0.0230533 94.8492 1.61715 -112.394 -16.058 75.0542 -5.33389 -42.1221 -20.6945 -111.65 -29.194 0.414795 -13.2832 -83.1345 -3.21831 79.3353 -25.0596 -65.856 -52.6213 33.0341 -1.48186 -106.398 -2.29639 -0.0960876 -12.7921 36.9545 0.578514 -8.87987 -8.84661 4.19964 7.48829 
148.271 15.6373 121.87 -9.51519 -3.76381 -89.6456 -171.268 1.11363 98.4548 -25.7913 11.1739 -1.61917 60.3279 0.60335 -1.4227 73.7919 -9.08612 47.7973 165.561 -4.12281 81.6332 -22.5177 -18.2232 0.798245 72.7941 -6.06724 -0.694951 36.3901 -2.94215 8.54443 -0.503625 6.51607 -89.9323 13.8433 -0.965474 0.264355 2.17273 -0.952902 0.306586 -20.3653 -1.00028 -0.0380626 -0.352661 -1.00028 -0.0380584 94.9843 2.59974 -112.872 -17.87 75.8656 -2.85177 -42.0819 -21.1102 -111.995 -29.7382 0.381058 -13.0016 -83.2079 -3.7662 79.3533 -24.1821 -66.7455 -52.6966 32.6928 -1.18656 -106.18 -1.895 -0.125867 -12.8353 39.0233 0.821621 -8.37845 -10.6953 4.29 6.83131 
148.159 15.6122 121.894 -9.64231 -3.79601 -89.7611 -171.358 1.19352 98.316 -26.6796 11.0611 -1.64884 61.3347 0.944616 -1.36787 71.0165 -10.8583 51.1957 165.413 -4.53333 81.4773 -21.8602 -18.2366 0.758437 72.4092 -5.92218 -0.55563 37.7424 -2.88554 8.4792 -0.543694 6.47727 -89.8515 13.9217 -1.0052 0.432674 2.25104 -0.985167 0.476476 -20.2872 -1.08875 0.110533 -0.274509 -1.08875 0.110522 94.5895 0.514569 -112.308 -13.8596 74.7454 -8.4755 -42.2495 -20.5274 -111.187 -29.7321 0.399818 -13.0575 -83.2363 -2.75492 78.7863 -21.9419 -66.9578 -49.6713 32.6477 -1.30525 -106.37 -2.34556 -0.0924956 -12.744 36.361 0.447292 -9.74758 -8.33322 4.45919 7.49066 
148.24 15.6178 121.886 -9.57108 -3.72174 -89.6674 -171.288 1.10113 98.4223 -26.037 11.1086 -1.6402 60.5072 0.65995 -1.59827 75.5953 -8.92414 51.5401 165.535 -4.27341 81.5802 -22.3084 -18.2626 0.769092 72.6798 -6.01843 -0.651602 36.5843 -2.9592 8.61958 -0.562434 6.48987 -89.8617 13.8967 -1.04744 0.417313 2.22609 -1.02806 0.463012 -20.3124 -1.12442 0.0831883 -0.299765 -1.12442 0.0831906 94.4587 1.77916 -114.094 -20.157 75.7202 -0.772666 -42.2085 -21.051 -111.859 -29.7166 0.382742 -13.0373 -83.1528 -2.92394 79.1332 -22.0041 -67.2107 -49.9835 32.3138 -1.08958 -106.262 -1.8037 -0.132284 -12.7663 36.7823 0.517117 -10.0066 -9.03918 4.59307 8.18433 
